<?xml version="1.0" encoding="utf-8"?>
<!-- Generator: Adobe Illustrator 28.0.0, SVG Export Plug-In . SVG Version: 6.00 Build 0)  -->
<svg version="1.0" id="floor" xmlns="http://www.w3.org/2000/svg" xmlns:xlink="http://www.w3.org/1999/xlink" x="0px" y="0px"
	 viewBox="0 0 1082.2 1193.5" style="enable-background:new 0 0 1082.2 1193.5;" xml:space="preserve">
<style type="text/css">
	.st0{fill:none;}
	.st1{fill:none;stroke:#FF0000;stroke-miterlimit:10;}
</style>
<g id="rooms">
	<polygon id="room_x5F_sun" class="st0" points="267.7,310 360.5,310 360.5,257.6 478.5,257.6 478.5,310.1 571.3,310 571.3,82.2 
		571.3,56 571.3,48 540.6,48 462,48 458.8,48 380.2,48 376.8,48 298.2,48 267.7,48 267.7,49.5 267.6,83.8 	"/>
	<rect id="room_x5F_linen_x5F_closet" x="580.2" y="635.9" class="st0" width="69.4" height="74.3"/>
	<polygon id="room_x5F_coat_x5F_closet" class="st0" points="498.9,818 498.9,917.4 569.4,917.4 569.4,818 	"/>
	<polygon id="room_x5F_service" class="st0" points="649.6,543.2 581,543.2 581,625.6 649.6,625.6 	"/>
	<polygon id="room_x5F_living" class="st0" points="488.5,807.9 745.2,808.1 745.3,671.3 828.9,671.2 828.9,541.8 659.9,541.8 
		659.9,720.9 570.2,720.8 570.5,320.6 266.9,320.2 267,430.3 257.2,430.3 256.7,123.7 46.3,123.6 45.8,808 337.8,807.9 337.8,818.6 
		285.5,818.6 285.4,917.9 488.6,917.9 488.5,818.5 	"/>
	<g id="guest">
		<polygon id="room_x5F_guest_x5F_vanity" class="st0" points="754.9,805.7 881.6,805.7 881.7,683.3 755,683.2 		"/>
		<polygon id="room_x5F_guest_x5F_bath" class="st0" points="891.8,682.1 892,806.6 1045,807 1044.7,682.4 		"/>
		<polygon id="room_x5F_guest_x5F_closet" class="st0" points="891.7,972 1044.6,972 1044.6,816.8 891.8,816.8 		"/>
		<polygon id="room_x5F_guest" class="st0" points="579.8,817.4 579.9,1149.5 881.3,1149.5 881.4,817.4 		"/>
	</g>
	<polygon id="room_x5F_laundry" class="st0" points="838.3,671.5 882,671.5 882,544.8 838.3,544.8 	"/>
	<g id="master">
		<polygon id="room_x5F_master" class="st0" points="881,533.9 880.6,126.5 775,126.5 689.7,126.5 582.4,126.5 582.1,533.6 		"/>
		<polygon id="room_x5F_master_x5F_closet" class="st0" points="1041.4,397.7 1041.3,233.8 892.7,233.9 892.6,397.7 		"/>
		<polygon id="room_x5F_master_x5F_bath" class="st0" points="892.3,545.6 892.1,672.3 1045,672.2 1045.1,545.4 		"/>
		<polygon id="room_x5F_master_x5F_vanity" class="st0" points="1044.3,534.8 1044.3,408 891.3,408 891.5,534.8 		"/>
	</g>
</g>
<g id="plan">
	<path id="interior" d="M1066.3,212.3h-3.6l-160.6,0.1V105H775h-85.3h-108V82.2V56h11.1V26.5h-52.2v10.7H462h-3.2h-78.6h-3.4h-78.6
		V26.5h-52v21.9h11.2v1.1l-0.2,34.3v29.7l-211-0.3l-0.1-11.1H24.8l-0.5,716.3l250.9-0.1v99.4h-11.3v21.6h294.5l0.1,231.8h344.4
		V993.5h163.7L1066.3,212.3z M892.7,233.9l148.6-0.1l0.1,163.9H892.6L892.7,233.9z M582.4,126.5h107.3H775h105.6l0.1,288.3l0.3,78.7
		v40.4l-298.9-0.3L582.4,126.5z M581,543.2h68.6v82.4H581V543.2z M580.2,635.9h69.4v74.3h-69.4V635.9z M267.6,83.8l0.1-34.3V48h30.5
		h78.6h3.4h78.6h3.2h78.6h30.7v8v26.2V310l-92.8,0.1v-52.5h-118V310h-92.8L267.6,83.8L267.6,83.8z M285.4,917.9l0.1-99.3h52.3v-10.7
		l-292,0.1l0.5-684.4l210.4,0.1l0.5,306.6h9.8l-0.1-110.1l303.6,0.4l-0.3,400.2l89.7,0.1V541.8h169v129.4l-83.6,0.1l-0.1,136.8
		l-256.7-0.2v10.6l0.1,99.4L285.4,917.9L285.4,917.9z M569.4,917.4h-70.5V818h70.5V917.4z M881.3,1149.5H579.9l-0.1-332.1h301.6
		L881.3,1149.5z M881.6,805.7H754.9l0.1-122.5l126.7,0.1L881.6,805.7z M882,671.5h-43.7V544.8H882V671.5z M891.3,408h153v126.8
		H891.5v-41.3L891.3,408z M1044.6,972H891.7l0.1-155.2h152.8V972z M892,806.6l-0.2-124.5l152.9,0.3L1045,807L892,806.6z M1045,672.2
		l-152.9,0.1l0.2-126.7l152.8-0.2L1045,672.2z"/>
	<path id="outline" class="st0" d="M1066.3,212.3l-164.2,0.1V105H775h-85.3h-108V82.2V56h11.1V26.5h-52.2v10.7H462h-3.2h-78.6h-3.4
		h-78.6V26.5h-52v21.9h11.2v1.1l-0.2,34.3v29.7l-211-0.3l-0.1-11.1H24.8l-0.5,716.3l250.9-0.1v99.4h-11.3v21.6h294.5l0.1,231.8
		h344.4V993.5h163.7L1066.3,212.3z"/>
</g>
<g id="features">
	<g id="doors">
		<rect x="606" y="805.7" class="st1" width="70" height="14.1"/>
		<rect x="646.3" y="547.7" class="st1" width="16.8" height="72.3"/>
		<rect x="646.3" y="641.1" class="st1" width="16.8" height="63.5"/>
		<rect x="877.6" y="414.8" class="st1" width="17" height="78.7"/>
		<rect x="274.4" y="305.5" class="st1" width="69.9" height="19.2"/>
		<rect x="493.8" y="305.5" class="st1" width="69.9" height="19.7"/>
		<rect x="250.1" y="157.6" class="st1" width="24.3" height="132.7"/>
		<rect x="508.3" y="805.7" class="st1" width="52.4" height="14.5"/>
		<rect x="742.4" y="748.3" class="st1" width="15.4" height="52.4"/>
		<rect x="878.9" y="745.1" class="st1" width="15.9" height="52.5"/>
		<rect x="819.5" y="803.8" class="st1" width="52.5" height="15.5"/>
		<rect x="878.3" y="868.2" class="st1" width="16.5" height="52.3"/>
		<rect x="879.6" y="553.4" class="st1" width="15" height="52.5"/>
		<rect x="903.4" y="532.5" class="st1" width="52.3" height="15.3"/>
		<rect x="939.1" y="395.3" class="st1" width="52.6" height="15"/>
		<rect x="677.1" y="532.5" class="st1" width="52.1" height="10.7"/>
		<rect x="271.9" y="843.5" class="st1" width="16.7" height="68.8"/>
		<rect x="83.4" y="109.2" class="st1" width="128.9" height="18.5"/>
	</g>
</g>
<g id="features_00000104691954942002559660000002027561091334370706_">
	<g id="doors_00000054223677079190012360000014120070933967717526_">
		<rect x="606" y="805.7" class="st1" width="70" height="14.1"/>
		<rect x="646.3" y="547.7" class="st1" width="16.8" height="72.3"/>
		<rect x="646.3" y="641.1" class="st1" width="16.8" height="63.5"/>
		<rect x="877.6" y="414.8" class="st1" width="17" height="78.7"/>
		<rect x="274.4" y="305.5" class="st1" width="69.9" height="19.2"/>
		<rect x="493.8" y="305.5" class="st1" width="69.9" height="19.7"/>
		<rect x="250.1" y="157.6" class="st1" width="24.3" height="132.7"/>
		<rect x="508.3" y="805.7" class="st1" width="52.4" height="14.5"/>
		<rect x="742.4" y="748.3" class="st1" width="15.4" height="52.4"/>
		<rect x="878.9" y="745.1" class="st1" width="15.9" height="52.5"/>
		<rect x="819.5" y="803.8" class="st1" width="52.5" height="15.5"/>
		<rect x="878.3" y="868.2" class="st1" width="16.5" height="52.3"/>
		<rect x="879.6" y="553.4" class="st1" width="15" height="52.5"/>
		<rect x="903.4" y="532.5" class="st1" width="52.3" height="15.3"/>
		<rect x="939.1" y="395.3" class="st1" width="52.6" height="15"/>
		<rect x="677.1" y="532.5" class="st1" width="52.1" height="10.7"/>
		<rect x="271.9" y="843.5" class="st1" width="16.7" height="68.8"/>
		<rect x="83.4" y="109.2" class="st1" width="128.9" height="18.5"/>
		<polyline class="st1" points="482,238.6 406,211.6 351.8,364.1 427.8,391.2 482,238.6 		"/>
	</g>
</g>
</svg>
