<?xml version="1.0" encoding="utf-8"?>
<!-- Generator: Adobe Illustrator 27.9.0, SVG Export Plug-In . SVG Version: 6.00 Build 0)  -->
<svg version="1.0" id="floor" xmlns="http://www.w3.org/2000/svg" xmlns:xlink="http://www.w3.org/1999/xlink" x="0px" y="0px"
	 viewBox="0 0 1082.2 1193.5" style="enable-background:new 0 0 1082.2 1193.5;" xml:space="preserve">
<style type="text/css">
	.st0{fill:none;stroke:#FF0000;stroke-miterlimit:10;}
	.st1{fill:none;}
</style>
<g id="doors">
	<line class="st0" x1="274.4" y1="310" x2="344.3" y2="310"/>
	<line class="st0" x1="344.3" y1="320.3" x2="274.4" y2="320.2"/>
	<rect x="606" y="801.1" class="st0" width="70" height="23.3"/>
	<line class="st0" x1="699.9" y1="643.8" x2="699.9" y2="697.8"/>
	<line class="st0" x1="689.6" y1="643.8" x2="689.6" y2="697.8"/>
	<line class="st0" x1="563.7" y1="310" x2="493.8" y2="310.1"/>
	<line class="st0" x1="563.7" y1="320.6" x2="493.8" y2="320.5"/>
</g>
<g id="rooms">
	<polygon id="room_x5F_sun" class="st1" points="267.7,310 274.4,310 344.3,310 360.5,310 360.5,257.6 478.5,257.6 478.5,310.1 
		493.8,310.1 563.7,310 571.3,310 571.3,82.2 571.3,56 571.3,48 540.6,48 462,48 458.8,48 380.2,48 376.8,48 298.2,48 267.7,48 
		267.7,49.5 267.6,83.8 267.6,157.6 267.7,290.3 	"/>
	<rect id="room_x5F_linen_x5F_closet" x="580.2" y="635.9" class="st1" width="69.4" height="74.3"/>
	<polygon id="room_x5F_coat_x5F_closet" class="st1" points="508.3,818 498.9,818 498.9,917.4 569.4,917.4 569.4,818 560.7,818 	"/>
	<polygon id="room_x5F_service" class="st1" points="649.6,620 649.6,547.7 649.6,543.2 581,543.2 581,625.6 649.6,625.6 	"/>
	<polygon id="room_x5F_living" class="st1" points="488.5,807.9 508.3,807.9 560.7,808.1 745.2,808.1 745.2,800.7 745.3,748.3 
		745.3,671.3 828.9,671.2 828.9,541.8 745.3,541.8 739.9,541.8 669.8,541.8 659.9,541.8 659.9,547.7 659.9,620 659.9,720.9 
		570.2,720.8 570.5,320.6 563.7,320.6 493.8,320.5 344.3,320.3 274.4,320.2 266.9,320.2 267,430.3 257.2,430.3 256.9,290.3 
		256.8,157.6 256.7,123.7 212.3,123.7 83.4,123.6 46.3,123.6 45.8,808 337.8,807.9 337.8,818.6 285.5,818.6 285.5,843.5 
		285.4,912.3 285.4,917.9 488.6,917.9 488.5,818.5 	"/>
	<g id="guest">
		<polygon id="room_x5F_guest_x5F_vanity" class="st1" points="755,748.3 754.9,800.7 754.9,805.7 819.5,805.6 872,805.7 
			881.6,805.7 881.6,797.6 881.7,745.1 881.7,683.3 755,683.2 		"/>
		<polygon id="room_x5F_guest_x5F_bath" class="st1" points="891.8,682.1 892,745 892,797.6 892,806.6 1045,807 1044.7,682.4 		"/>
		<polygon id="room_x5F_guest_x5F_closet" class="st1" points="891.8,868.2 891.7,920.5 891.7,972 1044.6,972 1044.6,816.8 
			891.8,816.8 		"/>
		<polygon id="room_x5F_guest" class="st1" points="819.5,817.4 579.8,817.4 579.9,1149.5 881.3,1149.5 881.3,920.5 881.4,868.2 
			881.4,817.4 872,817.4 		"/>
	</g>
	<polygon id="room_x5F_laundry" class="st1" points="838.3,671.5 882,671.5 882,605.9 882,553.4 882,544.8 838.3,544.8 	"/>
	<g id="master">
		<polygon id="room_x5F_master" class="st1" points="739.9,533.8 881,533.9 881,493.5 880.7,414.8 880.6,126.5 775,126.5 
			689.7,126.5 582.4,126.5 582.1,533.6 669.8,533.7 		"/>
		<polygon id="room_x5F_master_x5F_closet" class="st1" points="991.7,397.7 1041.4,397.7 1041.3,233.8 892.7,233.9 892.6,397.7 
			939.1,397.7 		"/>
		<polygon id="room_x5F_master_x5F_bath" class="st1" points="903.4,545.6 892.3,545.6 892.3,553.4 892.2,605.9 892.1,672.3 
			1045,672.2 1045.1,545.4 955.7,545.5 		"/>
		<polygon id="room_x5F_master_x5F_vanity" class="st1" points="903.4,534.8 955.7,534.8 1044.3,534.8 1044.3,408 991.7,408 
			939.1,408 891.3,408 891.3,414.8 891.5,493.5 891.5,534.8 		"/>
	</g>
	<path id="walls" d="M1066.3,212.3h-3.6l-160.6,0.1V105H775h-85.3h-108V82.2V56h11.1V26.5h-52.2v10.7H462h-3.2h-78.6h-3.4h-78.6
		V26.5h-52v21.9h11.2v1.1l-0.2,34.3v29.7l-44.9-0.1l-128.9-0.1l-37.2-0.1l-0.1-11.1H24.8l-0.5,716.3l250.9-0.1v25.2v68.8v5.4h-11.3
		v21.6h294.5l0.1,231.8h344.4V993.5h163.7L1066.3,212.3z M892.7,233.9l148.6-0.1l0.1,163.9h-49.7h-52.6h-46.5L892.7,233.9z
		 M582.4,126.5h107.3H775h105.6l0.1,288.3l0.3,78.7v40.4l-141.1-0.1l-70.1-0.1l-87.7-0.1L582.4,126.5z M581,543.2h68.6v4.5l0,72.3
		v5.6H581V543.2z M580.2,635.9h69.4v74.3h-69.4V635.9z M267.6,83.8l0.1-34.3V48h30.5h78.6h3.4h78.6h3.2h78.6h30.7v8v26.2V310h-7.6
		l-69.9,0.1h-15.3v-52.5h-118V310h-16.2h-69.9h-6.7v-19.7l-0.1-132.7V83.8z M285.4,917.9v-5.6l0.1-68.8v-24.9h52.3v-10.7l-292,0.1
		l0.5-684.4h37.1l128.9,0.1h44.4l0.1,33.9l0.1,132.7l0.3,140h9.8l-0.1-110.1h7.5l69.9,0.1l149.5,0.2l69.9,0.1h6.8l-0.3,400.2
		l89.7,0.1V620l0-72.3v-5.9h9.9l70.1,0l89,0v129.4l-83.6,0.1v77l-0.1,52.4v7.4H560.7l-52.4-0.2h-19.8v10.6l0.1,99.4H285.4z
		 M569.4,917.4h-70.5V818h9.4l52.4,0h8.7V917.4z M881.4,868.2l-0.1,52.3v229H579.9l-0.1-332.1h239.7l52.5,0h9.4V868.2z M881.7,745.1
		l-0.1,52.5v8.1H872l-52.5-0.1l-64.6,0.1v-5l0.1-52.4v-65.1l126.7,0.1V745.1z M882,553.4v52.5v65.6h-43.7V544.8H882V553.4z
		 M891.3,414.8V408h47.8h52.6h52.6v126.8h-88.6h-52.3h-11.9v-41.3L891.3,414.8z M1044.6,972H891.7v-51.5l0.1-52.3v-51.4h152.8V972z
		 M892,806.6v-9V745l-0.2-62.9l152.9,0.3L1045,807L892,806.6z M1045,672.2l-152.9,0.1l0.1-66.4l0.1-52.5v-7.8h11.1l52.3-0.1
		l89.4-0.1L1045,672.2z"/>
</g>
</svg>
