<?xml version="1.0" encoding="utf-8"?>
<!-- Generator: Adobe Illustrator 27.9.0, SVG Export Plug-In . SVG Version: 6.00 Build 0)  -->
<svg version="1.0" id="floor" xmlns="http://www.w3.org/2000/svg" xmlns:xlink="http://www.w3.org/1999/xlink" x="0px" y="0px"
	 viewBox="0 0 1082.2 1193.5" style="enable-background:new 0 0 1082.2 1193.5;" xml:space="preserve">
<style type="text/css">
	.st0{fill:none;stroke:#FF0000;stroke-miterlimit:10;}
	.st1{fill:#315B39;}
</style>
<polyline points="337.8,807.9 337.8,818.6 285.5,818.6 285.5,843.5 275.2,843.5 275.2,818.3 24.3,818.4 24.8,102.1 46.1,102.1 
	46.2,113.2 83.4,113.3 83.4,123.6 46.3,123.6 45.8,808 337.8,807.9 "/>
<polygon points="1066.6,993.5 902.9,993.5 902.9,1171.1 558.5,1171.1 558.4,939.3 263.9,939.3 263.9,917.7 275.2,917.7 275.2,912.3 
	285.4,912.3 285.4,917.9 488.6,917.9 488.5,818.5 488.5,807.9 508.3,807.9 508.3,818 498.9,818 498.9,917.4 569.4,917.4 569.4,818 
	560.7,818 560.7,808.1 745.2,808.1 745.2,800.7 754.9,800.7 754.9,805.7 819.5,805.6 819.5,817.4 579.8,817.4 579.9,1149.5 
	881.3,1149.5 881.3,920.5 891.7,920.5 891.7,972 1044.6,972 1044.6,816.8 891.8,816.8 891.8,868.2 881.4,868.2 881.4,817.4 
	872,817.4 872,805.7 881.6,805.7 881.6,797.6 892,797.6 892,806.6 1045,807 1044.7,682.4 891.8,682.1 892,745 881.7,745.1 
	881.7,683.3 755,683.2 755,748.3 745.3,748.3 745.3,671.3 828.9,671.2 828.9,544.6 745.3,544.6 745.3,541.8 739.9,541.8 
	739.9,533.8 881,533.9 881,493.5 891.5,493.5 891.5,534.8 903.4,534.8 903.4,545.6 892.3,545.6 892.3,553.4 882,553.4 882,544.8 
	838.3,544.8 838.3,671.5 882,671.5 882,605.9 892.2,605.9 892.1,672.3 1045,672.2 1045.1,545.4 955.7,545.5 955.7,534.8 
	1044.3,534.8 1044.3,408 991.7,408 991.7,397.7 1041.4,397.7 1041.3,233.8 892.7,233.9 892.6,397.7 939.1,397.7 939.1,408 
	891.3,408 891.3,414.8 880.7,414.8 880.6,126.5 775,126.5 775,105 902.1,105 902.1,212.4 1062.7,212.3 1066.3,212.3 "/>
<polygon points="659.9,720.9 570.2,720.8 570.5,320.6 570.5,320.6 563.7,320.6 563.7,310 571.3,310 571.3,82.2 592.8,82.2 
	592.8,105 689.7,105 689.7,126.5 582.4,126.5 582.1,533.6 669.8,533.7 669.8,541.8 659.9,541.8 659.9,547.7 649.6,547.7 
	649.6,543.2 581,543.2 581,625.6 649.6,625.6 649.6,620 659.9,620 "/>
<polygon points="478.5,310.1 493.8,310.1 493.8,320.5 344.3,320.3 274.4,320.2 266.9,320.2 267,430.3 257.2,430.3 256.9,290.3 
	267.7,290.3 267.7,310 274.4,310 344.3,310 360.5,310 360.5,257.6 478.5,257.6 "/>
<polyline points="256.7,123.7 212.3,123.7 212.3,113.4 257.2,113.5 257.2,83.8 267.6,83.8 267.6,157.6 256.8,157.6 256.7,123.7 "/>
<polyline points="592.8,56 571.3,56 571.3,48 540.6,48 540.6,26.5 592.8,26.5 592.8,56 "/>
<polyline points="298.2,48 267.7,48 267.7,49.5 257.4,49.5 257.4,48.4 246.2,48.4 246.2,26.5 298.2,26.5 298.2,48 "/>
<polyline points="380.2,48 376.8,48 376.8,37.2 380.2,37.2 380.2,48 "/>
<polyline points="462,48 458.8,48 458.8,37.2 462,37.2 462,48 "/>
<line class="st0" x1="274.4" y1="310" x2="344.3" y2="310"/>
<line class="st0" x1="344.3" y1="320.3" x2="274.4" y2="320.2"/>
<rect x="606" y="801.1" class="st0" width="70" height="23.3"/>
<polygon points="580.2,635.9 649.6,635.9 649.6,710.2 580.2,710.2 "/>
<line class="st0" x1="699.9" y1="643.8" x2="699.9" y2="697.8"/>
<line class="st0" x1="689.6" y1="643.8" x2="689.6" y2="697.8"/>
<line class="st0" x1="563.7" y1="310" x2="493.8" y2="310.1"/>
<line class="st0" x1="563.7" y1="320.6" x2="493.8" y2="320.5"/>
<path class="st1" d="M255.4,1048.3h-80.9V843.5l-70.3,77.4l-51.7,98.2l70.3,145.9h149.9L255.4,1048.3z M157.1,1090.7l-37-30.5v-65
	h102L157.1,1090.7z"/>
</svg>
