<?xml version="1.0" encoding="utf-8"?>
<!-- Generator: Adobe Illustrator 27.9.0, SVG Export Plug-In . SVG Version: 6.00 Build 0)  -->
<svg version="1.0" id="icons" xmlns="http://www.w3.org/2000/svg" xmlns:xlink="http://www.w3.org/1999/xlink" x="0px" y="0px"
	 viewBox="0 0 800 800" style="enable-background:new 0 0 800 800;" xml:space="preserve">
<style type="text/css">
	.st0{fill:#FFFFFF;}
	.st1{fill:none;stroke:#000000;stroke-width:50;stroke-linecap:round;stroke-linejoin:round;stroke-miterlimit:6.25;}
	.st2{fill:none;stroke:#000000;stroke-width:50;stroke-linecap:round;stroke-miterlimit:15.625;}
</style>
<circle class="st0" cx="400" cy="400" r="393"/>
<g>
	<polyline class="st1" points="334.6,171.1 400,133 465.4,171.1 	"/>
	<line class="st2" x1="400" y1="133" x2="400" y2="228.4"/>
	<polyline class="st1" points="465.4,628.9 400,667 334.6,628.9 	"/>
	<line class="st2" x1="400" y1="667" x2="400" y2="571.6"/>
	<polyline class="st1" points="171.1,342.2 171.1,266.5 234.5,228.9 	"/>
	<line class="st2" x1="171.1" y1="266.5" x2="251.4" y2="314.2"/>
	<polyline class="st1" points="628.9,457.8 628.9,533.5 565.5,571.1 	"/>
	<line class="st2" x1="628.9" y1="533.5" x2="548.6" y2="485.8"/>
	<polyline class="st1" points="234.5,571.6 171.1,533.5 171.1,457.8 	"/>
	<line class="st2" x1="171.1" y1="533.5" x2="250.6" y2="485.8"/>
	<polyline class="st2" points="565.5,228.9 628.9,266.5 628.9,342.2 	"/>
	<line class="st2" x1="628.9" y1="266.5" x2="548.6" y2="314.2"/>
	<polyline class="st2" points="400,476.3 400,400 465.4,361.9 	"/>
	<line class="st2" x1="400" y1="400" x2="334.6" y2="361.9"/>
</g>
</svg>
